HIERARCHY
ROOT joint_Root
{
	OFFSET 0.0 0.0 0.0
	CHANNELS 6 Xposition Yposition Zposition Zrotation Xrotation Yrotation 
	JOINT Hips
	{
		OFFSET 4.5925 91.4895 -427.239
		CHANNELS 6 Xposition Yposition Zposition Zrotation Xrotation Yrotation 
		JOINT Spine
		{
			OFFSET 15.7357 0.0 0.0
			CHANNELS 6 Xposition Yposition Zposition Zrotation Xrotation Yrotation 
			JOINT Chest
			{
				OFFSET 8.98455 -0.406207 0.0
				CHANNELS 6 Xposition Yposition Zposition Zrotation Xrotation Yrotation 
				JOINT Neck
				{
					OFFSET 16.3773 0.0 0.0
					CHANNELS 6 Xposition Yposition Zposition Zrotation Xrotation Yrotation 
					JOINT Head
					{
						OFFSET 6.45672 0.0 0.0
						CHANNELS 6 Xposition Yposition Zposition Zrotation Xrotation Yrotation 
						End Site
						{
							OFFSET 0.0 0.0 0.0
						}
					}
				}
				JOINT Shoulder_L
				{
					OFFSET 12.9942 -0.242716 4.98039
					CHANNELS 6 Xposition Yposition Zposition Zrotation Xrotation Yrotation 
					JOINT UpperArm_L
					{
						OFFSET 5.34809 0.0 0.0
						CHANNELS 6 Xposition Yposition Zposition Zrotation Xrotation Yrotation 
						JOINT LowerArm_L
						{
							OFFSET 24.3286 1.87007e-05 0.0
							CHANNELS 6 Xposition Yposition Zposition Zrotation Xrotation Yrotation 
							JOINT Hand_L
							{
								OFFSET 22.2916 0.0 0.0
								CHANNELS 6 Xposition Yposition Zposition Zrotation Xrotation Yrotation 
								End Site
								{
									OFFSET 0.0 0.0 0.0
								}
							}
						}
					}
				}
				JOINT Shoulder_R
				{
					OFFSET 12.9945 -0.242716 -4.98039
					CHANNELS 6 Xposition Yposition Zposition Zrotation Xrotation Yrotation 
					JOINT UpperArm_R
					{
						OFFSET -5.34813 0.0 0.0
						CHANNELS 6 Xposition Yposition Zposition Zrotation Xrotation Yrotation 
						JOINT LowerArm_R
						{
							OFFSET -24.3289 0.000322201 0.0
							CHANNELS 6 Xposition Yposition Zposition Zrotation Xrotation Yrotation 
							JOINT Hand_R
							{
								OFFSET -22.2915 -0.000108084 0.0
								CHANNELS 6 Xposition Yposition Zposition Zrotation Xrotation Yrotation 
								End Site
								{
									OFFSET 0.0 0.0 0.0
								}
							}
						}
					}
				}
			}
		}
		JOINT UpperLeg_L
		{
			OFFSET -2.19248 -6.46944 0.0
			CHANNELS 6 Xposition Yposition Zposition Zrotation Xrotation Yrotation 
			JOINT LowerLeg_L
			{
				OFFSET 39.0811 0.0 -1.23785e-05
				CHANNELS 6 Xposition Yposition Zposition Zrotation Xrotation Yrotation 
				JOINT Foot_L
				{
					OFFSET 40.9854 0.0 -1.26872e-05
					CHANNELS 6 Xposition Yposition Zposition Zrotation Xrotation Yrotation 
					JOINT Toes_L
					{
						OFFSET 11.7543 0.0 0.0
						CHANNELS 6 Xposition Yposition Zposition Zrotation Xrotation Yrotation 
						End Site
						{
							OFFSET 0.0 0.0 0.0
						}
					}
				}
			}
		}
		JOINT UpperLeg_R
		{
			OFFSET -2.19251 6.46944 0.0
			CHANNELS 6 Xposition Yposition Zposition Zrotation Xrotation Yrotation 
			JOINT LowerLeg_R
			{
				OFFSET -39.0811 -0.00228153 -0.0401928
				CHANNELS 6 Xposition Yposition Zposition Zrotation Xrotation Yrotation 
				JOINT Foot_R
				{
					OFFSET -40.9854 0.0 0.0
					CHANNELS 6 Xposition Yposition Zposition Zrotation Xrotation Yrotation 
					JOINT Toes_R
					{
						OFFSET -11.7543 0.0 0.0
						CHANNELS 6 Xposition Yposition Zposition Zrotation Xrotation Yrotation 
						End Site
						{
							OFFSET 0.0 0.0 0.0
						}
					}
				}
			}
		}
	}
}
MOTION
Frames:	5
Frame Time:	0.0333333
0.000000 0.000000 0.000000 0.000000 0.000000 -0.000000 4.030600 91.303900 1.092020 88.227700 -18.233600 2.969510 15.735700 0.000005 -0.000001 68.061400 85.140000 -65.539000 8.984550 -0.406207 -0.000000 1.341440 -3.771150 5.086160 16.377300 -0.000001 -0.000001 7.315640 0.496060 -1.779510 6.456720 -0.000001 -0.000000 2.292590 0.911920 1.279670 12.994200 -0.242716 4.980390 -86.192500 -8.178060 -64.927300 5.348090 -0.000007 -0.000001 -45.697000 -54.380000 -92.338900 24.328600 0.000019 0.000005 16.712700 11.485000 -56.453100 22.291600 -0.000001 0.000005 23.029000 5.285210 0.483065 12.994500 -0.242716 -4.980390 87.677200 9.270170 -75.866700 -5.348130 -0.000001 -0.000004 -58.954300 29.439300 -10.976300 -24.328900 0.000322 -0.000009 1.291440 2.497180 -27.376800 -22.291500 -0.000108 -0.000004 16.533000 5.427170 -3.842060 -2.192480 -6.469440 -0.000000 -177.048000 -23.041700 -2.469530 39.081100 -0.000007 -0.000012 -0.153549 0.302376 26.922000 40.985400 -0.000006 -0.000013 1.122470 -0.339857 -71.116100 11.754300 -0.000000 0.000003 -0.000275 -0.002417 -16.667800 -2.192510 6.469440 -0.000001 174.695000 14.356900 174.366000 -39.081100 -0.002282 -0.040193 -0.131071 0.276917 25.886300 -40.985400 0.000008 0.000006 2.122330 22.708900 -67.401400 -11.754300 -0.000006 -0.000006 -0.000503 -0.008081 -16.902100
0.000000 0.000000 0.000000 0.000000 0.000000 -0.000000 3.829720 91.317600 1.060920 88.384300 -17.149700 3.042890 15.735700 0.000005 -0.000001 68.705100 85.117800 -66.316100 8.984550 -0.406207 -0.000000 1.416100 -3.676700 4.820680 16.377300 -0.000001 -0.000001 7.057270 0.397728 -1.807730 6.456720 -0.000001 -0.000000 2.070410 0.948992 1.086810 12.994200 -0.242716 4.980390 -86.710700 -7.197660 -65.359600 5.348090 -0.000007 -0.000001 -44.541700 -52.331000 -87.940400 24.328600 0.000019 0.000005 16.347000 8.367370 -63.621100 22.291600 -0.000001 0.000005 23.641600 5.293830 0.245592 12.994500 -0.242716 -4.980390 87.600000 9.562940 -75.840300 -5.348130 -0.000001 -0.000004 -59.087700 29.300500 -10.533700 -24.328900 0.000322 -0.000009 1.182770 2.295720 -27.288600 -22.291500 -0.000108 -0.000004 16.561200 5.424290 -3.744050 -2.192480 -6.469440 -0.000000 -176.979000 -22.761700 -2.477140 39.081100 -0.000007 -0.000012 -0.153138 0.302272 26.868000 40.985400 -0.000006 -0.000013 1.202440 0.479583 -70.991500 11.754300 -0.000000 0.000003 -0.000265 -0.002346 -16.665300 -2.192510 6.469440 -0.000001 174.614000 15.011300 174.583000 -39.081100 -0.002282 -0.040193 -0.136325 0.287422 25.911500 -40.985400 0.000008 0.000006 2.087170 22.286400 -67.511400 -11.754300 -0.000006 -0.000006 -0.000492 -0.007907 -16.895000
0.000000 0.000000 0.000000 0.000000 0.000000 -0.000000 3.619540 91.327500 1.020870 88.458800 -15.959000 3.076520 15.735700 0.000005 -0.000001 69.423900 85.107800 -67.130500 8.984550 -0.406207 -0.000000 1.472700 -3.562870 4.629680 16.377300 -0.000001 -0.000001 6.683180 0.243597 -1.726590 6.456720 -0.000001 -0.000000 1.938610 1.012900 0.711393 12.994200 -0.242716 4.980390 -87.385700 -5.894710 -66.031600 5.348090 -0.000007 -0.000001 -42.526100 -49.516400 -81.981100 24.328600 0.000019 0.000005 15.445800 5.139210 -72.044600 22.291600 -0.000001 0.000005 24.442300 5.315050 -0.352802 12.994500 -0.242716 -4.980390 87.541500 9.780320 -75.815500 -5.348130 -0.000001 -0.000004 -59.291400 29.312700 -9.983510 -24.328900 0.000322 -0.000009 1.227840 2.397280 -27.151300 -22.291500 -0.000108 -0.000004 16.377700 5.419490 -3.581960 -2.192480 -6.469440 -0.000000 -176.859000 -22.305100 -2.599480 39.081100 -0.000007 -0.000012 -0.155313 0.305870 26.920400 40.985400 -0.000006 -0.000013 1.254580 1.208810 -70.886700 11.754300 -0.000000 0.000003 -0.000288 -0.002514 -16.671400 -2.192510 6.469440 -0.000001 174.619000 15.741300 174.813000 -39.081100 -0.002282 -0.040193 -0.140751 0.296486 25.915100 -40.985400 0.000008 0.000006 2.115400 21.826500 -67.646200 -11.754300 -0.000006 -0.000006 -0.000446 -0.007189 -16.865800
0.000000 0.000000 0.000000 0.000000 0.000000 -0.000000 3.418160 91.319400 0.987098 88.563100 -14.752900 3.234350 15.735700 0.000005 -0.000001 70.534600 85.051100 -68.353000 8.984550 -0.406207 -0.000000 1.637880 -3.413150 4.409190 16.377300 -0.000001 -0.000001 6.262320 0.095249 -1.433640 6.456720 -0.000001 -0.000000 1.705150 1.177130 0.214351 12.994200 -0.242716 4.980390 -88.160600 -4.308440 -66.856700 5.348090 -0.000007 -0.000001 -39.879000 -45.754200 -74.847800 24.328600 0.000019 0.000005 14.963100 2.384320 -81.154700 22.291600 -0.000001 0.000005 25.105000 5.328440 -0.740162 12.994500 -0.242716 -4.980390 87.488100 9.972840 -75.785300 -5.348130 -0.000001 -0.000004 -59.470400 29.559700 -9.528910 -24.328900 0.000322 -0.000009 1.232750 2.435330 -26.878900 -22.291500 -0.000108 -0.000004 16.119600 5.414440 -3.412720 -2.192480 -6.469440 -0.000000 -176.755000 -21.763000 -2.628720 39.081100 -0.000007 -0.000012 -0.154294 0.302320 27.038500 40.985400 -0.000006 -0.000013 1.313670 1.899360 -70.830000 11.754300 -0.000000 0.000003 -0.000272 -0.002398 -16.667200 -2.192510 6.469440 -0.000001 174.527000 16.582100 175.123000 -39.081100 -0.002282 -0.040193 -0.148507 0.311044 26.016500 -40.985400 0.000008 0.000006 2.075070 21.466100 -67.796500 -11.754300 -0.000006 -0.000006 -0.000571 -0.009111 -16.943900
0.000000 0.000000 0.000000 0.000000 0.000000 -0.000000 3.221560 91.310500 0.976576 88.688200 -13.615300 3.439780 15.735700 0.000005 -0.000001 72.229300 84.988100 -70.198700 8.984550 -0.406207 -0.000000 1.841580 -3.162440 4.109140 16.377300 -0.000001 -0.000001 5.804080 -0.046682 -1.056550 6.456720 -0.000001 -0.000000 1.428950 1.227450 -0.120050 12.994200 -0.242716 4.980390 -88.864700 -2.770260 -67.707600 5.348090 -0.000007 -0.000001 -37.335900 -40.571900 -66.975200 24.328600 0.000019 0.000005 15.062400 -0.084985 -90.316100 22.291600 -0.000001 0.000005 25.084000 5.339720 -1.071210 12.994500 -0.242716 -4.980390 87.437000 10.138900 -75.732900 -5.348130 -0.000001 -0.000004 -59.842700 29.859300 -8.957000 -24.328900 0.000322 -0.000009 1.211790 2.420010 -26.629300 -22.291500 -0.000108 -0.000004 15.967800 5.411940 -3.329610 -2.192480 -6.469440 -0.000000 -176.665000 -21.189800 -2.570720 39.081100 -0.000007 -0.000012 -0.155615 0.303903 27.115200 40.985400 -0.000006 -0.000013 1.339490 2.483620 -70.774300 11.754300 -0.000000 0.000003 -0.000275 -0.002418 -16.667900 -2.192510 6.469440 -0.000001 174.397000 17.294800 175.480000 -39.081100 -0.002282 -0.040193 -0.155625 0.324232 26.113700 -40.985400 0.000008 0.000006 1.991780 21.084600 -67.940900 -11.754300 -0.000006 -0.000006 -0.000342 -0.005569 -16.800000
